<?xml version="1.0" encoding="utf-8"?>
<!-- Generator: Adobe Illustrator 24.0.1, SVG Export Plug-In . SVG Version: 6.00 Build 0)  -->
<svg version="1.1" id="layer" xmlns="http://www.w3.org/2000/svg" xmlns:xlink="http://www.w3.org/1999/xlink" x="0px" y="0px"
	 viewBox="0 0 691.3 176" style="enable-background:new 0 0 691.3 176;" xml:space="preserve">
<style type="text/css">
	.st0{fill:#004499;}
	.st1{fill:#3388DD;}
	.st2{fill:#88BB00;}
</style>
<g>
	<g>
		<path class="st0" d="M197.6,48.3c0-3.3,0.5-8.6-3.2-10v-0.2h13.7v0.2c-3.6,1.4-3.2,6.7-3.2,10v27.3c0,3.3-0.4,8.5,3.2,9.9v0.2
			h-13.7v-0.2c3.6-1.3,3.2-6.7,3.2-9.9V48.3z"/>
		<path class="st0" d="M216.9,52.5c1.6,0,3.3-0.1,4.9-0.9h0.2v5.6c2.5-3.5,5.5-5.6,10.2-5.6c4.1,0,8.7,1.6,11,5
			c2,2.9,1.8,7.4,1.8,10.8v10.5c0,3.3-0.4,5.9,2.7,7.7v0.2h-12.1v-0.2c3.2-1.8,2.8-4.5,2.8-7.7V68c0-7.8-2.2-11.7-8.8-11.7
			s-7.7,4.4-7.7,8.7v12.8c0,3.3-0.4,5.9,2.7,7.7v0.2h-12v-0.2c3.2-1.8,2.7-4.5,2.7-7.8V60.5c0-3.3,0.4-6-2.7-7.8v-0.2H216.9z"/>
		<path class="st0" d="M262.4,71.7c0,2.7-0.9,10.2,6.9,10.2c1,0,2-0.4,2.9-0.7l-3.8,5.1c-0.7,0.2-1.5,0.4-2.3,0.4
			c-11.2,0-10.2-11.6-10.2-14.4V57.2H251v-2.6c6.8-1.2,8.6-6.2,8.6-13h2.9v10.8h6.8c0.9,0,2,0,2.8-0.4h0.2v6.6h-0.2
			c-1.2-1.5-3.3-1.4-5.2-1.4h-4.3v14.5H262.4z"/>
		<path class="st0" d="M282.4,67.9c0.1,8.8,6.3,14,14.5,14c4.3,0,8.5-1.2,11.9-3.8h0.2l-3.6,6.8c-3.1,1.3-6.6,1.8-10,1.8
			c-12.3,0-20.8-7.7-20.8-17.8c0-10,7.3-17.4,18.1-17.4c9.8,0,16.6,7.1,16.3,16.4H282.4z M301.4,63.7c-0.8-5.1-4.1-7.5-9.3-7.5
			c-4.8,0-8.5,2.9-9.3,7.5H301.4z"/>
		<path class="st0" d="M317.8,52.5c1.7,0,3.4-0.1,4.4-0.9h0.2v5.5c1.6-3.3,4.9-5.5,8.5-5.5l2.6,0.2v6.7c-0.8-0.9-2.1-1.2-3.3-1.2
			c-5.5,0-7.8,2.9-7.8,10.3v10.1c0,3.3-0.4,6,2.7,7.8v0.2H313v-0.2c3.2-1.8,2.8-4.5,2.8-7.8V60.4c0-3.3,0.4-5.9-2.7-7.7v-0.2H317.8z
			"/>
		<path class="st0" d="M343.5,52.5c1.6,0,3.3-0.1,4.5-0.9h0.2v5.7c2.5-3.9,5.4-5.7,10.2-5.7c5.1,0,8.6,2,11.3,6.3
			c2.8-3.9,6.2-6.3,11.6-6.3c10.3,0,12.9,5.9,12.9,15.1v11.1c0,3.1-0.4,6.7,3.2,7.8v0.2h-12.5v-0.2c3.2-1.8,2.7-4.5,2.7-7.8v-9.3
			c0-7.4-2.3-12.1-8.1-12.1c-6.5,0-8.3,4.1-8.3,10.9v10.5c0,3.3-0.4,6,2.8,7.8v0.2h-12.1v-0.2c3.2-1.8,2.8-4.5,2.8-7.8v-10
			c0-7.6-3.8-11.4-8.2-11.4c-5.5,0-8.2,3.4-8.2,10.4v11.1c0,3.3-0.4,5.9,2.7,7.8v0.2h-12v-0.2c3.2-1.8,2.7-4.5,2.7-7.8V60.6
			c0-3.3,0.4-5.9-2.7-7.7v-0.2h4.5V52.5z"/>
		<path class="st0" d="M401.1,69.4c0-10.8,8.7-17.9,19.2-17.9c4.6,0,8.6,1.2,12.1,4.3c3.7,3.2,5.9,8,5.9,13
			c0,10.4-8.7,17.9-18.9,17.9C409.5,86.7,401.1,79.7,401.1,69.4 M430.9,70.3c0-7-3.8-14-11.5-14c-6.7,0-11.1,5.3-11.1,11.8
			c0,6.7,4,13.8,11.4,13.8C426.4,81.9,430.9,76.8,430.9,70.3"/>
		<path class="st0" d="M468.8,52.5c1.9,0,4.1,0.3,5.4-0.9h0.2v26.3c0,3.3-0.4,6,2.8,7.7v0.2h-9.3V81c-2.6,4-5.4,5.6-10.4,5.6
			c-8.5,0-12.6-4.8-12.6-15V60.5c0-3.3,0.4-6-2.8-7.8v-0.2h4.7c1.6,0,3.4-0.1,4.4-0.9h0.2v18.9c0,6.7,1.9,10.8,8.2,10.8
			c4.8,0,8.3-3.9,8.3-9.5V60.7c0-3.4,0.4-6-2.8-7.9v-0.2L468.8,52.5L468.8,52.5z"/>
		<path class="st0" d="M485.3,52.5c1.6,0,3.3-0.1,4.9-0.9h0.2v5.6c2.5-3.5,5.5-5.6,10.2-5.6c4,0,8.7,1.6,11,5
			c2,2.9,1.8,7.4,1.8,10.8v10.5c0,3.3-0.4,5.9,2.7,7.7v0.2H504v-0.2c3.2-1.8,2.7-4.5,2.7-7.7V68c0-7.8-2.2-11.7-8.8-11.7
			c-6.6,0-7.7,4.4-7.7,8.7v12.8c0,3.3-0.4,5.9,2.8,7.7v0.2h-12.1v-0.2c3.2-1.8,2.8-4.5,2.8-7.8V60.5c0-3.3,0.4-6-2.8-7.8v-0.2H485.3
			z"/>
		<path class="st0" d="M529.4,71.7c0,2.7-0.9,10.2,6.9,10.2c1,0,2-0.4,2.9-0.7l-3.8,5.1c-0.7,0.2-1.5,0.4-2.3,0.4
			c-11.2,0-10.2-11.6-10.2-14.4V57.2H518v-2.6c6.8-1.2,8.6-6.2,8.6-13h2.9v10.8h6.8c0.9,0,2,0,2.8-0.4h0.2v6.6h-0.2
			c-1.2-1.5-3.3-1.4-5.2-1.4h-4.3v14.5H529.4z"/>
		<path class="st0" d="M572.1,86.7c-4.8-0.3-9.6-1.7-9.6-7.5V67.8c-2.1,1.1-4.6,1.7-6.9,2.2c-3.5,0.8-7.4,1.6-7.4,6
			c0,4.5,4.1,5.9,7.9,5.9c1.7,0,3.5-0.5,5.2-1l-4.3,5.4c-1.2,0.2-2.5,0.4-3.8,0.4c-7.3,0-12.4-4.6-12.4-10.6
			c0-13.5,21.6-7.2,21.6-15.1c0-3.5-4.3-4.6-6.9-4.6c-3.7,0-6.6,1.4-9.8,2.9l4.8-7.2l4.7-0.4c7.8,0,13.8,2.2,13.8,11v10.9
			c0,5.7,0.2,7.9,6.1,8.5L572.1,86.7z"/>
		<path class="st0" d="M581.3,52.5c1.7,0,3.5-0.1,4.7-1.2h0.2v26.4c0,3.3-0.4,6,2.8,7.8v0.2h-12.1v-0.2c3.2-1.8,2.7-4.5,2.7-7.8
			V60.4c0-3.3,0.4-5.9-2.7-7.7v-0.2L581.3,52.5L581.3,52.5z M582.7,48.1c-2.7,0-4.7-2.1-4.7-4.8c0-2.5,2.3-4.3,4.7-4.3
			c2.5,0,4.3,2.1,4.3,4.5C587,46,585.1,48.1,582.7,48.1"/>
		<path class="st0" d="M598.2,52.5c1.6,0,3.3-0.1,4.9-0.9h0.2v5.6c2.5-3.5,5.5-5.6,10.2-5.6c4.1,0,8.7,1.6,11,5
			c2,2.9,1.8,7.4,1.8,10.8v10.5c0,3.3-0.4,5.9,2.7,7.7v0.2h-12.1v-0.2c3.2-1.8,2.7-4.5,2.7-7.7V68c0-7.7-2.2-11.7-8.7-11.7
			c-6.6,0-7.7,4.4-7.7,8.7v12.8c0,3.3-0.4,5.9,2.8,7.7v0.2h-12.1v-0.2c3.2-1.8,2.7-4.5,2.7-7.8V60.5c0-3.3,0.4-6-2.7-7.8v-0.2H598.2
			z"/>
		<path class="st0" d="M104.9,51.1c0-3.5,2.8-6.3,6.3-6.3s6.3,2.8,6.3,6.3s-2.8,6.3-6.3,6.3C107.7,57.5,104.9,54.6,104.9,51.1"/>
	</g>
	<g>
		<path class="st0" d="M111.2,131c0.6,0,1.1-0.4,1.2-1L129,52.1V52v-0.2c0-0.8-0.6-1.5-1.4-1.5c-0.5,0-0.9,0.3-1.2,0.7l-14,20.5l0,0
			c-0.3,0.4-0.8,0.6-1.3,0.6h0.1c-0.5,0-1-0.3-1.3-0.6h-0.1L95.8,51c-0.2-0.4-0.7-0.7-1.2-0.7c-0.8,0-1.4,0.7-1.4,1.5V52v0.1
			L110,130C110.2,130.6,110.7,131,111.2,131L111.2,131z"/>
		<path class="st1" d="M119.7,121.6c0.3,0.2,0.8,0.1,1-0.2L156,72.6l0,0l0.1-0.1c0.2-0.5,0.1-1.2-0.4-1.5c-0.3-0.2-0.7-0.2-0.9,0
			l-14.6,8.3h-0.1c-0.3,0.1-0.7,0.1-1-0.1h0.1c-0.3-0.2-0.5-0.5-0.6-0.9v-0.1l2.6-39.1c0-0.4-0.2-0.7-0.5-0.9
			c-0.5-0.3-1-0.1-1.3,0.5v0.1l0,0l-20.1,81.6C119.3,121,119.4,121.4,119.7,121.6L119.7,121.6z"/>
		<path class="st1" d="M101.9,121.6c-0.3,0.2-0.8,0.1-1-0.2L65.6,72.6l0,0l-0.1-0.1c-0.3-0.5-0.1-1.2,0.4-1.5c0.3-0.2,0.6-0.2,0.9,0
			l14.6,8.3l0,0c0.3,0.1,0.7,0.1,1-0.1h-0.1c0.3-0.2,0.5-0.5,0.6-0.9v-0.1l-2.6-39.1c0-0.4,0.2-0.7,0.5-0.9c0.5-0.3,1-0.1,1.3,0.5
			v0.1l0,0l20.1,81.6C102.4,121,102.2,121.4,101.9,121.6L101.9,121.6z"/>
		<path class="st2" d="M141.4,103c0.2,0.3,0.5,0.3,0.7,0.2l35.2-19l0,0h0.1c0.3-0.3,0.4-0.8,0.2-1.1c-0.1-0.2-0.4-0.3-0.6-0.3
			l-12.1,0.6l0,0c-0.2,0-0.5-0.1-0.6-0.4l0,0c-0.2-0.2-0.2-0.5-0.1-0.8l0,0l5.9-17.2c0.1-0.3,0.1-0.6-0.1-0.8
			c-0.2-0.4-0.7-0.4-1-0.1v0.1l0,0l-27.5,38.1C141.3,102.4,141.3,102.7,141.4,103L141.4,103z"/>
		<path class="st2" d="M80.2,103c-0.2,0.3-0.5,0.3-0.7,0.2l-35.2-19l0,0h-0.1c-0.3-0.3-0.4-0.8-0.2-1.1c0.1-0.2,0.4-0.3,0.6-0.3
			l12.1,0.6l0,0c0.3,0,0.5-0.1,0.6-0.4l0,0c0.2-0.2,0.2-0.5,0.1-0.8l0,0L51.5,65c-0.1-0.3-0.1-0.6,0.1-0.8c0.2-0.4,0.7-0.4,1-0.1
			l0-0.1l0,0l27.5,38.1C80.3,102.4,80.3,102.7,80.2,103L80.2,103z"/>
	</g>
	<g>
		<polygon class="st1" points="197.6,97.7 205.3,97.7 205.3,113.1 220.5,113.1 220.5,97.7 228.2,97.7 228.2,135.8 220.5,135.8 
			220.5,119.1 205.3,119.1 205.3,135.8 197.6,135.8 		"/>
		<path class="st1" d="M259.8,134.2c-2.7,1.5-5.7,2.2-9.7,2.2c-9.3,0-14.7-5.4-14.7-14.6c0-8.1,4.3-14.8,13.1-14.8
			c10.4,0,13.4,7.1,13.4,17h-19.4c0.3,4.5,3.5,7.1,8,7.1c3.5,0,6.6-1.3,9.3-2.8V134.2L259.8,134.2z M254.9,119
			c-0.2-3.6-1.9-6.6-5.9-6.6c-4.1,0-6.2,2.8-6.5,6.6H254.9z"/>
		<path class="st1" d="M270,109.1c2.8-1.3,6.7-2.1,9.8-2.1c8.6,0,12.1,3.5,12.1,11.8v3.6c0,2.8,0,5,0.1,7c0.1,2.1,0.2,4.1,0.3,6.3
			h-6.4c-0.3-1.5-0.3-3.3-0.3-4.2h-0.1c-1.7,3.1-5.3,4.9-8.7,4.9c-5,0-9.8-3-9.8-8.3c0-4.2,2-6.7,4.8-8c2.8-1.4,6.4-1.6,9.4-1.6h4
			c0-4.5-2-6.1-6.3-6.1c-3.1,0-6.2,1.2-8.7,3.1L270,109.1z M278.5,131.1c2.2,0,4-1,5.1-2.5c1.2-1.6,1.5-3.6,1.5-5.8h-3.2
			c-3.3,0-8.1,0.5-8.1,4.9C273.9,130,275.9,131.1,278.5,131.1"/>
		<rect x="300.1" y="94.8" class="st1" width="7.3" height="40.9"/>
		<path class="st1" d="M320.5,113h-5.4v-5.3h5.4V102l7.3-2.3v8h6.5v5.3h-6.5v13.1c0,2.4,0.7,4.6,3.4,4.6c1.3,0,2.6-0.3,3.3-0.8
			l0.2,5.8c-1.5,0.4-3.2,0.7-5.4,0.7c-5.7,0-8.9-3.5-8.9-9.1V113H320.5z"/>
		<path class="st1" d="M343.4,94.8h7.3v16.6h0.1c1.9-2.7,5-4.5,8.8-4.5c6.7,0,9.5,4.7,9.5,11v17.7h-7.3v-15c0-3.4-0.1-8.1-4.8-8.1
			c-5.3,0-6.4,5.7-6.4,9.3v13.8h-7.3L343.4,94.8L343.4,94.8z"/>
		<path class="st1" d="M396.2,113.7c-1.3-0.6-2.7-1-5-1c-4.5,0-7.4,3.6-7.4,8.9c0,5.2,2.5,9.2,7.6,9.2c2.1,0,4.4-0.8,5.6-1.3
			l0.3,6.1c-2.1,0.6-4.3,0.9-7.3,0.9c-9.2,0-13.9-6.3-13.9-14.8c0-8.1,4.8-14.6,13.6-14.6c3,0,5.1,0.3,7.1,0.9L396.2,113.7z"/>
		<path class="st1" d="M406.4,109.1c2.8-1.3,6.7-2.1,9.8-2.1c8.6,0,12.1,3.5,12.1,11.8v3.6c0,2.8,0.1,5,0.1,7
			c0.1,2.1,0.2,4.1,0.3,6.3h-6.4c-0.3-1.5-0.3-3.3-0.3-4.2h-0.1c-1.7,3.1-5.3,4.9-8.7,4.9c-5,0-9.8-3-9.8-8.3c0-4.2,2-6.7,4.8-8
			c2.8-1.4,6.4-1.6,9.4-1.6h4c0-4.5-2-6.1-6.3-6.1c-3.1,0-6.2,1.2-8.7,3.1L406.4,109.1z M414.9,131.1c2.2,0,4-1,5.1-2.5
			c1.2-1.6,1.5-3.6,1.5-5.8h-3.2c-3.3,0-8.1,0.5-8.1,4.9C410.3,130,412.3,131.1,414.9,131.1"/>
		<path class="st1" d="M437.5,107.6h6.5v6.4h0.1c0.3-2.6,3.3-7,7.7-7c0.7,0,1.5,0,2.2,0.2v7.4c-0.6-0.4-2-0.6-3.3-0.6
			c-5.9,0-5.9,7.4-5.9,11.5v10.3h-7.3L437.5,107.6L437.5,107.6z"/>
		<path class="st1" d="M482,134.2c-2.7,1.5-5.7,2.2-9.7,2.2c-9.3,0-14.7-5.4-14.7-14.6c0-8.1,4.3-14.8,13-14.8
			c10.4,0,13.4,7.1,13.4,17h-19.4c0.3,4.5,3.5,7.1,8,7.1c3.5,0,6.6-1.3,9.3-2.8v5.9H482z M477.1,119c-0.2-3.6-1.9-6.6-5.9-6.6
			c-4.1,0-6.2,2.8-6.5,6.6H477.1z"/>
		<path class="st0" d="M632.5,57.1c0-3.1,2.6-5.7,5.7-5.7c3.1,0,5.7,2.6,5.7,5.7s-2.6,5.7-5.7,5.7C635,62.8,632.5,60.2,632.5,57.1
			 M642.5,57.1c0-2.7-1.9-4.6-4.3-4.6s-4.3,1.9-4.3,4.6s1.9,4.6,4.3,4.6S642.5,59.8,642.5,57.1 M636,53.9h2.4c1.5,0,2.4,0.5,2.4,1.9
			c0,1.1-0.6,1.6-1.7,1.7l1.7,2.8h-1.2l-1.7-2.8h-0.7v2.8H636L636,53.9L636,53.9z M637.2,56.6h1.1c0.7,0,1.3-0.1,1.3-1
			c0-0.8-0.7-0.9-1.3-0.9h-1.1V56.6z"/>
	</g>
</g>
</svg>
